<svg width="48" height="48" viewBox="0 0 48 48" fill="none" xmlns="http://www.w3.org/2000/svg">
<path d="M40.25 34.95C41.15 35.4167 41.9083 35.2667 42.525 34.5C43.1417 33.7333 43.2167 32.9333 42.75 32.1L39.2 25.4L36.5 32.75L40.25 34.95ZM29.65 32.85H33.15L38 20.75C38.2 20.2833 38.275 19.825 38.225 19.375C38.175 18.925 37.9 18.5833 37.4 18.35L33.25 16.55C32.7833 16.3167 32.3167 16.3167 31.85 16.55C31.3833 16.7833 31.1333 17.1333 31.1 17.6L29.65 32.85ZM14.85 32.85H18.3L16.9 17.6C16.8667 17.1 16.6417 16.7333 16.225 16.5C15.8083 16.2667 15.3167 16.2833 14.75 16.55L10.8 18.25C10.3667 18.4167 10.125 18.7917 10.075 19.375C10.025 19.9583 10.0833 20.4833 10.25 20.95L14.85 32.85ZM7.75 34.95L11.5 32.75L8.8 25.4L5.25 32.35C4.78333 33.2833 4.88333 34.0417 5.55 34.625C6.21667 35.2083 6.95 35.3167 7.75 34.95ZM21.3 32.85H26.65L28.3 14.65C28.3667 14.1833 28.2417 13.7917 27.925 13.475C27.6083 13.1583 27.2167 13 26.75 13H21.25C20.7167 13 20.3167 13.1583 20.05 13.475C19.7833 13.7917 19.6667 14.1833 19.7 14.65L21.3 32.85ZM6.65 38C5.35 38 4.25 37.5333 3.35 36.6C2.45 35.6667 2 34.55 2 33.25C2 32.85 2.075 32.4583 2.225 32.075C2.375 31.6917 2.53333 31.3167 2.7 30.95L7.3 22C6.8 20.7 6.75 19.4083 7.15 18.125C7.55 16.8417 8.35 15.9333 9.55 15.4L13.7 13.7C14.2333 13.5 14.775 13.3833 15.325 13.35C15.875 13.3167 16.3833 13.45 16.85 13.75C17.1167 12.6833 17.65 11.7917 18.45 11.075C19.25 10.3583 20.1833 10 21.25 10H26.75C27.8167 10 28.75 10.3333 29.55 11C30.35 11.6667 30.8833 12.5167 31.15 13.55C31.65 13.35 32.1667 13.2667 32.7 13.3C33.2333 13.3333 33.75 13.4667 34.25 13.7L38.45 15.4C39.6833 15.8667 40.5083 16.7333 40.925 18C41.3417 19.2667 41.2667 20.5 40.7 21.7L45.3 30.9C45.4333 31.2667 45.5833 31.625 45.75 31.975C45.9167 32.325 46 32.6833 46 33.05C46 34.45 45.5 35.625 44.5 36.575C43.5 37.525 42.3 38 40.9 38C40.5333 38 40.1917 37.925 39.875 37.775C39.5583 37.625 39.2333 37.4833 38.9 37.35L35.85 35.85H12.1L9.2 37.35C8.8 37.5167 8.39167 37.6667 7.975 37.8C7.55833 37.9333 7.11667 38 6.65 38Z" fill="black"/>
</svg>
