<svg width="48" height="48" viewBox="0 0 48 48" fill="none" xmlns="http://www.w3.org/2000/svg">
<path d="M40.2247 34.9931L40.2247 34.9932L40.227 34.9944C40.6839 35.2313 41.1101 35.3144 41.5034 35.2366C41.897 35.1587 42.2503 34.9213 42.564 34.5313C42.8771 34.1421 43.055 33.7414 43.0936 33.3296C43.1322 32.9179 43.0311 32.4997 42.7939 32.076C42.7938 32.0759 42.7937 32.0757 42.7936 32.0756L39.2442 25.3766L39.1917 25.2776L39.1531 25.3828L36.4531 32.7328L36.4387 32.772L36.4747 32.7931L40.2247 34.9931ZM29.6002 32.8453L29.595 32.9H29.65H33.15H33.1838L33.1964 32.8686L38.046 20.7697C38.046 20.7695 38.0461 20.7694 38.0462 20.7692C38.249 20.2957 38.3257 19.8289 38.2747 19.3695C38.2223 18.8982 37.9329 18.5435 37.4212 18.3047L37.4199 18.3041L33.2711 16.5047C32.7908 16.2649 32.308 16.2651 31.8276 16.5053C31.3475 16.7453 31.0851 17.1095 31.0502 17.5958C31.0502 17.596 31.0501 17.5962 31.0501 17.5964L29.6002 32.8453ZM14.8034 32.868L14.8157 32.9H14.85H18.3H18.3548L18.3498 32.8454L16.9499 17.5967C16.9499 17.5965 16.9499 17.5963 16.9498 17.5961C16.9153 17.0805 16.6816 16.6983 16.2494 16.4564C15.8146 16.2129 15.3055 16.2335 14.7295 16.5044L10.7811 18.2037C10.3256 18.3794 10.0763 18.7747 10.0252 19.3707C9.97468 19.9599 10.0334 20.4923 10.2029 20.9668L10.2029 20.9668L10.2034 20.968L14.8034 32.868ZM7.77083 34.9955L7.77094 34.9957L7.7753 34.9931L11.5253 32.7931L11.5613 32.772L11.5469 32.7328L8.84693 25.3828L8.8075 25.2754L8.75547 25.3773L5.20547 32.3273L5.20528 32.3276C4.96906 32.8001 4.87372 33.2332 4.92543 33.6253C4.97726 34.0184 5.17613 34.3643 5.51708 34.6626C5.85621 34.9594 6.21481 35.1374 6.59269 35.1932C6.9706 35.2491 7.36371 35.1821 7.77083 34.9955ZM21.2502 32.8544L21.2542 32.9H21.3H26.65H26.6957L26.6998 32.8545L28.3497 14.6558C28.4181 14.175 28.2886 13.7679 27.9604 13.4396C27.6338 13.1131 27.2293 12.95 26.75 12.95H21.25C20.7065 12.95 20.2906 13.1117 20.0118 13.4428C19.7356 13.7708 19.616 14.1757 19.6501 14.6536L19.6502 14.6544L21.2502 32.8544ZM7.34447 22.0229L7.3547 22.0029L7.34667 21.9821C6.85055 20.6922 6.80121 19.412 7.19773 18.1399C7.59349 16.8702 8.38351 15.9733 9.56963 15.446L13.7183 13.7466C14.2468 13.5484 14.7834 13.4329 15.328 13.3999C15.8673 13.3673 16.3651 13.4978 16.823 13.7921L16.8816 13.8298L16.8985 13.7621C17.1628 12.7049 17.691 11.8221 18.4834 11.1122C19.2743 10.4037 20.1957 10.05 21.25 10.05H26.75C27.8053 10.05 28.7272 10.3794 29.518 11.0384C30.3097 11.6982 30.8374 12.5391 31.1016 13.5625L31.1158 13.6175L31.1686 13.5964C31.6617 13.3992 32.171 13.3171 32.6969 13.3499C33.2237 13.3828 33.7343 13.5146 34.2289 13.7453L34.2288 13.7454L34.2312 13.7463L38.4312 15.4464L38.4323 15.4468C39.6513 15.908 40.4655 16.7631 40.8775 18.0156C41.2902 19.2702 41.216 20.4903 40.6548 21.6786L40.6444 21.7006L40.6553 21.7224L45.254 30.9198C45.3876 31.287 45.5379 31.6459 45.7049 31.9965C45.8685 32.3402 45.95 32.6912 45.95 33.05C45.95 34.4365 45.4555 35.5984 44.4656 36.5388C43.475 37.4798 42.2874 37.95 40.9 37.95C40.5404 37.95 40.2061 37.8765 39.8964 37.7298C39.5793 37.5796 39.254 37.4377 38.9203 37.3043L35.8721 35.8051L35.8616 35.8H35.85H12.1H12.0878L12.077 35.8056L9.17886 37.3046C8.78079 37.4705 8.37443 37.6197 7.95976 37.7524C7.54833 37.884 7.11184 37.95 6.65 37.95C5.36354 37.95 4.27654 37.4888 3.38599 36.5653C2.49501 35.6413 2.05 34.5371 2.05 33.25C2.05 32.8564 2.12377 32.4709 2.27156 32.0932C2.42109 31.7111 2.57891 31.3373 2.74502 30.9718L7.34447 22.0229Z" stroke="black" stroke-width="0.1"/>
</svg>
