<svg width="38" height="38" viewBox="0 0 38 38" fill="none" xmlns="http://www.w3.org/2000/svg">
<path d="M19.1 37.7778C20.2767 37.7792 21.4246 37.4162 22.3841 36.7392C23.3437 36.0621 24.0672 35.1047 24.4542 34H13.7458C14.1328 35.1047 14.8563 36.0621 15.8159 36.7392C16.7754 37.4162 17.9233 37.7792 19.1 37.7778V37.7778ZM32.4 23.7736V15.1111C32.4 9.03455 28.2485 3.91567 22.6245 2.37622C22.0678 0.982222 20.7074 0 19.1 0C17.4926 0 16.1322 0.982222 15.5755 2.37622C9.9515 3.91755 5.8 9.03455 5.8 15.1111V23.7736L2.5567 26.9979C2.37992 27.173 2.23972 27.3811 2.14418 27.6103C2.04864 27.8395 1.99964 28.0852 2 28.3333V30.2222C2 30.7232 2.20018 31.2036 2.5565 31.5579C2.91282 31.9121 3.39609 32.1111 3.9 32.1111H34.3C34.8039 32.1111 35.2872 31.9121 35.6435 31.5579C35.9998 31.2036 36.2 30.7232 36.2 30.2222V28.3333C36.2004 28.0852 36.1514 27.8395 36.0558 27.6103C35.9603 27.3811 35.8201 27.173 35.6433 26.9979L32.4 23.7736Z" fill="#B0E0E6"/>
</svg>
