<svg width="38" height="38" viewBox="0 0 38 38" fill="none" xmlns="http://www.w3.org/2000/svg">
<path d="M16.5716 36.7329L12.3146 35.5913C12.0985 35.5286 11.8063 34.7633 12.0223 33.5715L12.4798 31.1251L12.0731 30.9118C10.8405 30.2595 9.70948 29.4315 8.71828 28.4655L8.43871 28.1895L5.6303 29.1806C5.16011 29.3437 4.70264 29.4315 4.3087 29.4315C3.83851 29.4315 3.60977 29.306 3.57165 29.2182L1.74174 25.2539C1.65278 25.0532 2.05943 24.3381 3.13959 23.7484L5.14741 22.6319L5.02033 22.1552C4.77888 21.2644 4.61368 20.3486 4.55014 19.4328L4.4866 18.9435L1.77986 18.3539C0.572626 18.0905 -0.0246373 17.5259 0.000778132 17.3001L0.585333 12.9845C0.610749 12.8214 1.14447 12.4325 2.32629 12.4325H2.58045L5.71925 12.583L5.89716 12.2067C6.55796 10.8518 7.42209 9.62232 8.46412 8.54341L8.73098 8.26742L7.63812 5.21888C7.23147 4.07725 7.39667 3.27435 7.6 3.18653L11.6156 1.37999H11.6283C11.9587 1.37999 12.5814 1.75636 13.1406 2.75999L14.3478 4.88016L14.8307 4.74216C15.8219 4.45362 16.8766 4.27798 17.9568 4.21525L18.4778 4.19016L18.8082 1.85672C18.9861 0.62727 19.5071 0 19.7359 0L24.1455 0.238362C24.3615 0.250908 24.819 0.940904 24.8571 2.15781L24.9587 5.49488L25.3019 5.65797C26.6108 6.31033 27.8053 7.13833 28.8473 8.12942L29.1523 8.41796L32.2276 7.06306C32.7613 6.82469 33.2823 6.69924 33.7144 6.69924C34.0448 6.69924 34.2481 6.78706 34.2989 6.86233L36.4338 10.6761C36.5355 10.8643 36.1924 11.617 35.163 12.2945L32.5834 14.0007L32.7105 14.4397C32.9646 15.3054 33.1298 16.1083 33.2061 16.9237L33.2569 17.413L35.8874 17.7768C37.1073 17.9525 37.7554 18.4668 37.7427 18.6801L37.4886 23.0333C37.4759 23.2466 36.7769 23.6982 35.5443 23.7359L32.1513 23.8362L31.9861 24.2001C31.4905 25.3041 30.8424 26.3328 30.0927 27.2611L29.8004 27.625L31.3507 29.9082C32.0369 30.9244 32.0751 31.7398 31.8972 31.8778L28.4407 34.6002C28.4025 34.6253 28.3263 34.6378 28.2882 34.6378C27.9324 34.6378 27.2716 34.3242 26.6108 33.6342L24.5267 31.4513L24.1327 31.6018C22.5697 32.204 20.9304 32.5428 19.2276 32.5804L18.7955 32.5929L17.8424 35.1522C17.4231 36.2813 16.8131 36.758 16.5844 36.758C16.5844 36.7455 16.5716 36.7329 16.5716 36.7329ZM18.8717 8.64378C13.4455 8.64378 9.02326 13.0096 9.02326 18.3665C9.02326 23.7233 13.4455 28.0891 18.8717 28.0891C24.2979 28.0891 28.7202 23.7233 28.7202 18.3665C28.7202 13.0096 24.2979 8.64378 18.8717 8.64378Z" fill="#B0E0E6"/>
<path d="M18.8718 23.2466C16.1523 23.2466 13.9285 21.0637 13.9285 18.3665C13.9285 15.6817 16.1396 13.4863 18.8718 13.4863C21.5912 13.4863 23.8151 15.6692 23.8151 18.3665C23.8024 21.0637 21.5912 23.2466 18.8718 23.2466Z" fill="#B0E0E6"/>
</svg>
